<svg xmlns="http://www.w3.org/2000/svg" viewBox="0 0 600 450" width="100%" height="100%">
  <defs>
    <linearGradient id="bgSafeSeclo" x1="0%" y1="0%" x2="100%" y2="100%">
      <stop offset="0%" stop-color="#f0fdf4"/>
      <stop offset="100%" stop-color="#dcfce7"/>
    </linearGradient>
    <linearGradient id="squareBlue" x1="0%" y1="0%" x2="100%" y2="100%">
      <stop offset="0%" stop-color="#0284c7"/>
      <stop offset="100%" stop-color="#0369a1"/>
    </linearGradient>
    <linearGradient id="holoSeclo" x1="0%" y1="0%" x2="100%" y2="100%">
      <stop offset="0%" stop-color="#38bdf8"/>
      <stop offset="50%" stop-color="#c084fc"/>
      <stop offset="100%" stop-color="#4ade80"/>
    </linearGradient>
  </defs>
  <rect width="600" height="450" fill="url(#bgSafeSeclo)" rx="16"/>
  <rect x="2" y="2" width="596" height="446" fill="none" stroke="#16a34a" stroke-width="3" rx="14"/>
  
  <rect x="30" y="24" width="220" height="34" rx="17" fill="#15803d"/>
  <text x="50" y="47" font-family="'Segoe UI', Roboto, sans-serif" font-size="14" font-weight="700" fill="#ffffff">✓ AUTHENTIC PACKAGING</text>
  
  <!-- Box -->
  <rect x="60" y="80" width="220" height="300" rx="10" fill="#ffffff" stroke="#16a34a" stroke-width="2" filter="drop-shadow(0 10px 15px rgba(0,0,0,0.1))"/>
  <rect x="60" y="80" width="220" height="70" rx="10 10 0 0" fill="url(#squareBlue)"/>
  <text x="80" y="125" font-family="'Segoe UI', Roboto, sans-serif" font-size="26" font-weight="800" fill="#ffffff">Seclo® 20</text>
  <text x="80" y="142" font-family="'Segoe UI', Roboto, sans-serif" font-size="11" fill="#bae6fd">Omeprazole BP 20 mg Capsule</text>
  
  <!-- Square Logo -->
  <rect x="80" y="170" width="28" height="28" fill="#e11d48"/>
  <text x="88" y="189" font-family="sans-serif" font-size="16" font-weight="bold" fill="#fff">S</text>
  <text x="115" y="188" font-family="'Segoe UI', Roboto, sans-serif" font-size="13" font-weight="700" fill="#1e293b">SQUARE PHARMA</text>
  
  <!-- Security Hologram -->
  <rect x="80" y="215" width="85" height="42" rx="6" fill="url(#holoSeclo)"/>
  <text x="88" y="238" font-family="'Segoe UI', Roboto, sans-serif" font-size="10" font-weight="bold" fill="#0f172a">GENUINE SEAL</text>
  <text x="88" y="250" font-family="'Segoe UI', Roboto, sans-serif" font-size="8" fill="#1e293b">SQUARE SECURITY</text>
  
  <text x="80" y="280" font-family="'Segoe UI', Roboto, sans-serif" font-size="10" fill="#475569">DAR: 028-0248-020</text>
  <text x="80" y="300" font-family="'Segoe UI', Roboto, sans-serif" font-size="10" fill="#475569">Batch: SQ-77124</text>
  <text x="80" y="320" font-family="'Segoe UI', Roboto, sans-serif" font-size="10" fill="#475569">Exp: 10/2028 | MRP: 5.00 ৳</text>
  
  <!-- Strip Graphic -->
  <rect x="310" y="100" width="230" height="260" rx="12" fill="#cbd5e1" stroke="#64748b" stroke-width="2" filter="drop-shadow(0 10px 15px rgba(0,0,0,0.15))"/>
  <!-- Capsules -->
  <g transform="translate(340, 130)">
    <rect x="0" y="0" width="30" height="15" rx="7.5" fill="#f59e0b"/>
    <rect x="15" y="0" width="15" height="15" rx="0 7.5 7.5 0" fill="#dc2626"/>
  </g>
  <g transform="translate(410, 130)">
    <rect x="0" y="0" width="30" height="15" rx="7.5" fill="#f59e0b"/>
    <rect x="15" y="0" width="15" height="15" rx="0 7.5 7.5 0" fill="#dc2626"/>
  </g>
  <g transform="translate(480, 130)">
    <rect x="0" y="0" width="30" height="15" rx="7.5" fill="#f59e0b"/>
    <rect x="15" y="0" width="15" height="15" rx="0 7.5 7.5 0" fill="#dc2626"/>
  </g>
  
  <g transform="translate(340, 190)">
    <rect x="0" y="0" width="30" height="15" rx="7.5" fill="#f59e0b"/>
    <rect x="15" y="0" width="15" height="15" rx="0 7.5 7.5 0" fill="#dc2626"/>
  </g>
  <g transform="translate(410, 190)">
    <rect x="0" y="0" width="30" height="15" rx="7.5" fill="#f59e0b"/>
    <rect x="15" y="0" width="15" height="15" rx="0 7.5 7.5 0" fill="#dc2626"/>
  </g>
  <g transform="translate(480, 190)">
    <rect x="0" y="0" width="30" height="15" rx="7.5" fill="#f59e0b"/>
    <rect x="15" y="0" width="15" height="15" rx="0 7.5 7.5 0" fill="#dc2626"/>
  </g>
  
  <rect x="330" y="270" width="190" height="50" rx="8" fill="#1e293b"/>
  <text x="340" y="295" font-family="'Segoe UI', Roboto, sans-serif" font-size="11" font-weight="700" fill="#38bdf8">ALU-ALU FOIL PACK</text>
  <text x="340" y="310" font-family="'Segoe UI', Roboto, sans-serif" font-size="10" fill="#e2e8f0">Embossed Square Logo on Foil</text>
  
  <rect x="30" y="400" width="540" height="32" rx="8" fill="#15803d"/>
  <text x="50" y="421" font-family="'Segoe UI', Roboto, sans-serif" font-size="12" font-weight="600" fill="#ffffff">🔍 GENUINE MARKERS: High-grade Alu-Alu Foil, Sharp Square Logo, 3D Color-Shifting Security Seal</text>
</svg>
